{
  "accessors": [
    {
      "bufferView": 2,
      "componentType": 5126,
      "count": 65394,
      "max": [
        0.9136983156204224,
        1.9230679273605347,
        0.1184716448187828
      ],
      "min": [
        -0.9581844210624695,
        0.12046151608228683,
        -0.005594968795776367
      ],
      "type": "VEC3"
    },
    {
      "bufferView": 2,
      "byteOffset": 784728,
      "componentType": 5126,
      "count": 65394,
      "max": [
        0.9999995231628418,
        0.9998683333396912,
        0.9999933838844299
      ],
      "min": [
        -0.9999291300773621,
        -0.9998583197593689,
        -0.9999185800552368
      ],
      "type": "VEC3"
    },
    {
      "bufferView": 3,
      "componentType": 5126,
      "count": 65394,
      "max": [
        0.9843137264251709,
        0.9843137264251709,
        0.9843137264251709,
        1.0
      ],
      "min": [
        0.0,
        0.0,
        0.003921568859368563,
        1.0
      ],
      "type": "VEC4"
    },
    {
      "bufferView": 1,
      "componentType": 5126,
      "count": 65394,
      "max": [
        0.0,
        1.0
      ],
      "min": [
        0.0,
        1.0
      ],
      "type": "VEC2"
    },
    {
      "bufferView": 0,
      "componentType": 5125,
      "count": 65394,
      "type": "SCALAR"
    },
    {
      "bufferView": 2,
      "byteOffset": 1569456,
      "componentType": 5126,
      "count": 65282,
      "max": [
        0.9767233729362488,
        2.3853015899658203,
        0.14447814226150513
      ],
      "min": [
        -1.8153314590454102,
        -0.4682867228984833,
        -1.5754555463790894
      ],
      "type": "VEC3"
    },
    {
      "bufferView": 2,
      "byteOffset": 2352840,
      "componentType": 5126,
      "count": 65282,
      "max": [
        0.9998247623443604,
        0.9999702572822571,
        0.9999972581863403
      ],
      "min": [
        -0.9999836683273315,
        -0.9999990463256836,
        -0.9999940395355225
      ],
      "type": "VEC3"
    },
    {
      "bufferView": 3,
      "byteOffset": 1046304,
      "componentType": 5126,
      "count": 65282,
      "max": [
        0.9333333373069763,
        0.9137254953384399,
        0.9843137264251709,
        1.0
      ],
      "min": [
        0.0,
        0.0313725508749485,
        0.003921568859368563,
        1.0
      ],
      "type": "VEC4"
    },
    {
      "bufferView": 1,
      "byteOffset": 523152,
      "componentType": 5126,
      "count": 65282,
      "max": [
        0.0,
        1.0
      ],
      "min": [
        0.0,
        1.0
      ],
      "type": "VEC2"
    },
    {
      "bufferView": 0,
      "byteOffset": 261576,
      "componentType": 5125,
      "count": 65286,
      "type": "SCALAR"
    },
    {
      "bufferView": 2,
      "byteOffset": 3136224,
      "componentType": 5126,
      "count": 64822,
      "max": [
        1.131052017211914,
        2.354982376098633,
        0.14664551615715027
      ],
      "min": [
        -1.1600282192230225,
        0.16223585605621338,
        -0.01396206021308899
      ],
      "type": "VEC3"
    },
    {
      "bufferView": 2,
      "byteOffset": 3914088,
      "componentType": 5126,
      "count": 64822,
      "max": [
        0.9999899864196777,
        0.9998936057090759,
        0.999984860420227
      ],
      "min": [
        -0.9981557726860046,
        -0.9997597336769104,
        -0.9999955892562866
      ],
      "type": "VEC3"
    },
    {
      "bufferView": 3,
      "byteOffset": 2090816,
      "componentType": 5126,
      "count": 64822,
      "max": [
        0.7058823704719543,
        0.9843137264251709,
        0.9843137264251709,
        1.0
      ],
      "min": [
        0.0,
        0.003921568859368563,
        0.003921568859368563,
        1.0
      ],
      "type": "VEC4"
    },
    {
      "bufferView": 1,
      "byteOffset": 1045408,
      "componentType": 5126,
      "count": 64822,
      "max": [
        0.0,
        1.0
      ],
      "min": [
        0.0,
        1.0
      ],
      "type": "VEC2"
    },
    {
      "bufferView": 0,
      "byteOffset": 522720,
      "componentType": 5125,
      "count": 64824,
      "type": "SCALAR"
    },
    {
      "bufferView": 2,
      "byteOffset": 4691952,
      "componentType": 5126,
      "count": 57276,
      "max": [
        1.1184461116790771,
        2.384356737136841,
        0.14321297407150269
      ],
      "min": [
        -1.1613816022872925,
        0.8045881390571594,
        0.01883639767765999
      ],
      "type": "VEC3"
    },
    {
      "bufferView": 2,
      "byteOffset": 5379264,
      "componentType": 5126,
      "count": 57276,
      "max": [
        0.9999011158943176,
        0.9998872876167297,
        0.9999973177909851
      ],
      "min": [
        -0.999880313873291,
        -0.9998806715011597,
        -0.9999884963035583
      ],
      "type": "VEC3"
    },
    {
      "bufferView": 3,
      "byteOffset": 3127968,
      "componentType": 5126,
      "count": 57276,
      "max": [
        0.7058823704719543,
        0.7058823704719543,
        0.7058823704719543,
        1.0
      ],
      "min": [
        0.7058823704719543,
        0.7058823704719543,
        0.7058823704719543,
        1.0
      ],
      "type": "VEC4"
    },
    {
      "bufferView": 1,
      "byteOffset": 1563984,
      "componentType": 5126,
      "count": 57276,
      "max": [
        0.0,
        1.0
      ],
      "min": [
        0.0,
        1.0
      ],
      "type": "VEC2"
    },
    {
      "bufferView": 0,
      "byteOffset": 782016,
      "componentType": 5125,
      "count": 57276,
      "type": "SCALAR"
    }
  ],
  "asset": {
    "extras": {
      "author": "Digital Altar (https://sketchfab.com/digitalaltar)",
      "license": "COPYRIGHT TO Digital Altar",
      "source": "https://sketchfab.com/3d-models/tonantzin-guadalupe-d9a8968a464444ca826f07984eb17a65",
      "title": "Tonantzin Guadalupe"
    },
    "generator": "Sketchfab-15.61.0",
    "version": "2.0"
  },
  "bufferViews": [
    {
      "buffer": 0,
      "byteLength": 1011120,
      "name": "floatBufferViews",
      "target": 34963
    },
    {
      "buffer": 0,
      "byteLength": 2022192,
      "byteOffset": 1011120,
      "byteStride": 8,
      "name": "floatBufferViews",
      "target": 34962
    },
    {
      "buffer": 0,
      "byteLength": 6066576,
      "byteOffset": 3033312,
      "byteStride": 12,
      "name": "floatBufferViews",
      "target": 34962
    },
    {
      "buffer": 0,
      "byteLength": 4044384,
      "byteOffset": 9099888,
      "byteStride": 16,
      "name": "floatBufferViews",
      "target": 34962
    }
  ],
  "buffers": [
    {
      "byteLength": 13144272,
      "uri": "scene.bin"
    }
  ],
  "extensionsUsed": [
    "KHR_materials_clearcoat",
    "KHR_materials_specular"
  ],
  "materials": [
    {
      "alphaMode": "BLEND",
      "extensions": {
        "KHR_materials_clearcoat": {
          "clearcoatFactor": 1.0,
          "clearcoatRoughnessFactor": 0.04
        },
        "KHR_materials_specular": {
          "specularColorFactor": [
            1.0,
            1.0,
            1.0
          ],
          "specularFactor": 0.486
        }
      },
      "name": "brush_DiamondHull",
      "pbrMetallicRoughness": {
        "baseColorFactor": [
          0.2949596010350378,
          0.2949596010350378,
          0.2949596010350378,
          0.505
        ],
        "metallicFactor": 0.553,
        "roughnessFactor": 0.0
      }
    }
  ],
  "meshes": [
    {
      "name": "Object_0",
      "primitives": [
        {
          "attributes": {
            "COLOR_0": 2,
            "NORMAL": 1,
            "POSITION": 0,
            "TEXCOORD_0": 3
          },
          "indices": 4,
          "material": 0,
          "mode": 4
        }
      ]
    },
    {
      "name": "Object_1",
      "primitives": [
        {
          "attributes": {
            "COLOR_0": 7,
            "NORMAL": 6,
            "POSITION": 5,
            "TEXCOORD_0": 8
          },
          "indices": 9,
          "material": 0,
          "mode": 4
        }
      ]
    },
    {
      "name": "Object_2",
      "primitives": [
        {
          "attributes": {
            "COLOR_0": 12,
            "NORMAL": 11,
            "POSITION": 10,
            "TEXCOORD_0": 13
          },
          "indices": 14,
          "material": 0,
          "mode": 4
        }
      ]
    },
    {
      "name": "Object_3",
      "primitives": [
        {
          "attributes": {
            "COLOR_0": 17,
            "NORMAL": 16,
            "POSITION": 15,
            "TEXCOORD_0": 18
          },
          "indices": 19,
          "material": 0,
          "mode": 4
        }
      ]
    }
  ],
  "nodes": [
    {
      "children": [
        1
      ],
      "matrix": [
        1.0,
        0.0,
        0.0,
        0.0,
        0.0,
        2.220446049250313e-16,
        -1.0,
        0.0,
        0.0,
        1.0,
        2.220446049250313e-16,
        0.0,
        0.0,
        0.0,
        0.0,
        1.0
      ],
      "name": "Sketchfab_model"
    },
    {
      "children": [
        2
      ],
      "name": "root"
    },
    {
      "children": [
        3,
        5,
        7,
        9
      ],
      "matrix": [
        1.0,
        0.0,
        0.0,
        0.0,
        0.0,
        2.220446049250313e-16,
        1.0,
        0.0,
        0.0,
        -1.0,
        2.220446049250313e-16,
        0.0,
        0.0,
        0.0,
        0.0,
        1.0
      ],
      "name": "GLTF_SceneRootNode"
    },
    {
      "children": [
        4
      ],
      "name": "brush_DiamondHull_g0_b0_0"
    },
    {
      "mesh": 0,
      "name": "Object_4"
    },
    {
      "children": [
        6
      ],
      "name": "brush_DiamondHull_g0_b1_3"
    },
    {
      "mesh": 1,
      "name": "Object_6"
    },
    {
      "children": [
        8
      ],
      "name": "brush_DiamondHull_g0_b2_4"
    },
    {
      "mesh": 2,
      "name": "Object_8"
    },
    {
      "children": [
        10
      ],
      "name": "brush_DiamondHull_g0_b3_5"
    },
    {
      "mesh": 3,
      "name": "Object_10"
    }
  ],
  "scene": 0,
  "scenes": [
    {
      "name": "Sketchfab_Scene",
      "nodes": [
        0
      ]
    }
  ]
}
